<?xml version="1.0" encoding="utf-8"?>
<!-- Generator: Adobe Illustrator 22.0.1, SVG Export Plug-In . SVG Version: 6.00 Build 0)  -->
<svg version="1.1" id="Layer_1" xmlns="http://www.w3.org/2000/svg" xmlns:xlink="http://www.w3.org/1999/xlink" x="0px" y="0px"
	 width="1728px" height="1296px" viewBox="0 0 1728 1296" enable-background="new 0 0 1728 1296" xml:space="preserve">
<g>
	<g>
		<path fill="none" stroke="#FF0000" stroke-width="0.001" stroke-miterlimit="10" d="M174.3996,1105.0209l49.7435-895.3838
			c1.5021-27.0382,23.8651-48.1933,50.9451-48.1933h1127.4646c27.08,0,49.443,21.1551,50.9451,48.1933l49.7435,895.3838
			c0.8575,15.4358-11.4281,28.423-26.8877,28.423H201.2872C185.8276,1133.4438,173.542,1120.4567,174.3996,1105.0209z"/>
		<circle fill="none" stroke="#FF0000" stroke-width="0.001" stroke-miterlimit="10" cx="583.7024" cy="189.6485" r="8.3622"/>
		<circle fill="none" stroke="#FF0000" stroke-width="0.001" stroke-miterlimit="10" cx="1093.9386" cy="189.6485" r="8.3622"/>
	</g>
	
		<ellipse transform="matrix(0.1598 -0.9872 0.9872 0.1598 -753.1866 1296.9681)" fill="none" stroke="#FF0000" stroke-width="0.001" stroke-miterlimit="10" cx="385.2772" cy="1090.9241" rx="8.504" ry="8.5039"/>
	
		<ellipse transform="matrix(0.1602 -0.9871 0.9871 0.1602 8.513 2191.854)" fill="none" stroke="#FF0000" stroke-width="0.001" stroke-miterlimit="10" cx="1292.3638" cy="1090.9241" rx="8.504" ry="8.5039"/>
</g>
<g>
	<path fill="none" stroke="#FF0000" stroke-width="0.001" stroke-miterlimit="10" d="M1475.29,294.8189v90.7087
		c0,4.6966,3.8074,8.5039,8.5039,8.5039h62.3623c4.6964,0,8.5039-3.8073,8.5039-8.5039v-90.7087
		c0-4.6966-3.8075-8.5039-8.5039-8.5039h-62.3623C1479.0974,286.315,1475.29,290.1223,1475.29,294.8189z"/>
	<circle fill="none" stroke="#FF0000" stroke-width="0.001" stroke-miterlimit="10" cx="1512.1404" cy="340.1732" r="8.5039"/>
	<path fill="none" stroke="#FF0000" stroke-width="0.001" stroke-miterlimit="10" d="M1475.29,183.4462v90.7086
		c0,4.6966,3.8074,8.504,8.5039,8.504h62.3623c4.6964,0,8.5039-3.8074,8.5039-8.504v-90.7086c0-4.6966-3.8075-8.504-8.5039-8.504
		h-62.3623C1479.0974,174.9422,1475.29,178.7496,1475.29,183.4462z"/>
	<circle fill="none" stroke="#FF0000" stroke-width="0.001" stroke-miterlimit="10" cx="1512.1404" cy="228.8005" r="8.5039"/>
</g>
</svg>
