<?xml version="1.0" encoding="utf-8"?>
<!-- Generator: Adobe Illustrator 22.0.1, SVG Export Plug-In . SVG Version: 6.00 Build 0)  -->
<svg version="1.1" id="Layer_1" xmlns="http://www.w3.org/2000/svg" xmlns:xlink="http://www.w3.org/1999/xlink" x="0px" y="0px"
	 width="1728px" height="1296px" viewBox="0 0 1728 1296" enable-background="new 0 0 1728 1296" xml:space="preserve">
<g>
	<g>
		<g>
			<path fill="#FFFFFF" stroke="#FF0000" stroke-width="0.001" stroke-miterlimit="10" d="M199.3996,1105.0209l49.7435-895.3838
				c1.5021-27.0382,23.8651-48.1933,50.9451-48.1933h1127.4646c27.08,0,49.443,21.1551,50.9451,48.1933l49.7435,895.3838
				c0.8575,15.4358-11.4281,28.423-26.8877,28.423H226.2872C210.8276,1133.4438,198.542,1120.4567,199.3996,1105.0209z"/>
			<circle fill="#FFFFFF" stroke="#FF0000" stroke-width="0.001" stroke-miterlimit="10" cx="608.7024" cy="189.6485" r="8.3622"/>
			<circle fill="#FFFFFF" stroke="#FF0000" stroke-width="0.001" stroke-miterlimit="10" cx="1118.9386" cy="189.6485" r="8.3622"/>
		</g>
		
			<ellipse transform="matrix(0.1598 -0.9872 0.9872 0.1598 -732.1806 1321.6471)" fill="#FFFFFF" stroke="#FF0000" stroke-width="0.001" stroke-miterlimit="10" cx="410.2772" cy="1090.9241" rx="8.504" ry="8.5039"/>
		
			<ellipse transform="matrix(0.1602 -0.9871 0.9871 0.1602 29.5085 2216.5312)" fill="#FFFFFF" stroke="#FF0000" stroke-width="0.001" stroke-miterlimit="10" cx="1317.3638" cy="1090.9241" rx="8.504" ry="8.5039"/>
	</g>
	<path fill="#FFFFFF" stroke="#FF0000" stroke-width="0.001" stroke-miterlimit="10" d="M608.7024,756.7194L608.7024,756.7194
		c-15.6553,0-28.3465-12.6911-28.3465-28.3464V331.5225c0-15.6553,12.6912-28.3464,28.3465-28.3464l0,0
		c15.6553,0,28.3465,12.6911,28.3465,28.3464V728.373C637.0489,744.0283,624.3577,756.7194,608.7024,756.7194z"/>
	<path fill="#FFFFFF" stroke="#FF0000" stroke-width="0.001" stroke-miterlimit="10" d="M1118.9386,756.7194L1118.9386,756.7194
		c-15.6553,0-28.3464-12.6911-28.3464-28.3464V331.5225c0-15.6553,12.6912-28.3464,28.3464-28.3464l0,0
		c15.6553,0,28.3464,12.6911,28.3464,28.3464V728.373C1147.285,744.0283,1134.5939,756.7194,1118.9386,756.7194z"/>
</g>
</svg>
